<?xml version="1.0" encoding="UTF-8"?>
<svg id="Layer_2" data-name="Layer 2" xmlns="http://www.w3.org/2000/svg" viewBox="0 0 200 200">
  <defs>
    <style>
      .cls-1 {
        fill: #002945;
      }

      .cls-2 {
        fill: #fff;
        stroke: #fff;
        stroke-miterlimit: 10;
      }
    </style>
  </defs>
  <g id="Layer_1-2" data-name="Layer 1">
    <rect class="cls-1" width="200" height="200"/>
    <path class="cls-2" d="M95.63,97.81c-.53-.95-.94-1.85-1.48-2.66-1.37-2.08-3.35-2.59-5.7-1.61-1.08.45-2.14.87-3.31,1.02-2.02.26-3.79-.28-5.31-1.63-1.04-.92-1.78-2.05-2.39-3.29-.86-1.74-1.73-3.48-2.56-5.24-.23-.48-.5-.76-1.06-.87-1.46-.29-2.51-1.72-2.44-3.18.08-1.44,1.18-2.69,2.56-2.9,1.66-.25,3,.5,3.52,2.02.28.81.36,1.79-.59,3.19.21.43.44.89.67,1.36.73,1.48,1.44,2.97,2.19,4.45.26.52.55,1.02.89,1.49,1.38,1.93,3.41,2.57,5.85,1.61,1.24-.49,2.47-.99,3.83-1.07,2.28-.13,4.08.78,5.44,2.53.64.82,1.12,1.75,1.66,2.65.19.32.34.67.55,1.1,3-1.39,5.95-2.75,8.96-4.14-.09-.25-.15-.44-.24-.61-1.29-2.63-2.57-5.26-3.88-7.88-.28-.56-.62-1.11-1.01-1.62-1.23-1.59-2.86-2.09-4.8-1.48-.97.3-1.9.73-2.87.99-3.18.83-5.99-.21-7.77-2.97-.86-1.34-1.54-2.79-2.24-4.22-4.67-9.53-9.31-19.07-13.97-28.61-.14-.28-.29-.56-.48-.94-2.34,1.17-4.64,2.32-6.97,3.49.31.67.59,1.28.88,1.87,1.2,2.51,2.42,5.01,3.62,7.52.52,1.08.92,2.19,1.09,3.38.3,2.09-.28,3.9-1.66,5.47-1,1.13-2.26,1.89-3.6,2.54-4.57,2.21-9.13,4.43-13.71,6.62-.61.29-.85.64-.89,1.3-.12,2.32-.06,4.64.22,6.95.07.59.16,1.18.25,1.88.9-.44,1.67-.83,2.46-1.2,1.34-.63,2.65-1.32,4.02-1.87,1.81-.73,3.67-.8,5.5.02,1.58.7,2.71,1.89,3.54,3.35.8,1.41,1.49,2.88,2.22,4.34.48.96.98,1.91,1.39,2.9.22.53.56.72,1.09.83,1.26.27,2.03,1.1,2.33,2.32.28,1.2-.08,2.23-1,3.06-1.08.97-2.83,1.03-3.93.14-1.32-1.07-1.66-2.66-.85-4.04.1-.17.22-.34.37-.57-.39-.81-.8-1.64-1.2-2.47-.7-1.43-1.37-2.88-2.12-4.29-.41-.76-.88-1.51-1.44-2.16-1.06-1.22-2.43-1.65-4.01-1.29-.67.15-1.35.35-1.97.65-1.83.87-3.64,1.79-5.46,2.7-.13.06-.24.15-.43.27.2.83.37,1.68.59,2.52,1.48,5.61,3.76,10.9,6.54,15.98,2.07,3.77,4.4,7.37,6.87,10.88.29.42.55.89.76,1.37,2.4,5.56,4.77,11.14,7.17,16.7.26.6.38,1.2.37,1.85,0,8.65,0,17.29,0,25.94v1.05c.21.15.4.28.59.41,1.23.93,1.62,2.6.93,3.98-.66,1.32-2.34,2.04-3.78,1.54-1.15-.4-1.87-1.26-2.1-2.47-.24-1.23.23-2.26,1.19-2.98.5-.37.62-.74.62-1.29,0-8.62,0-17.23,0-25.85,0-.54-.1-1.02-.31-1.51-2.3-5.35-4.58-10.72-6.89-16.07-.26-.6-.6-1.19-.98-1.73-3.78-5.38-7.16-10.98-9.83-16.99-2.37-5.32-4.11-10.84-4.89-16.63-.48-3.52-.52-7.04-.13-10.58.92-8.43,4.18-15.87,9.33-22.52,1.28-1.65,2.68-3.2,4.07-4.76.33-.38.78-.7,1.24-.92,9.87-4.96,19.75-9.9,29.63-14.83,1.39-.69,2.83-1.16,4.42-1.17,1.95,0,3.59.71,4.83,2.17.75.87,1.4,1.86,1.93,2.88,1.37,2.65,2.65,5.35,3.96,8.04.51,1.05.91,2.13,1.11,3.29.41,2.43-.28,4.49-2.07,6.14-.72.66-1.55,1.22-2.41,1.69-1.5.81-3.05,1.54-4.61,2.25-1.11.51-2.27.86-3.51.94-2.35.15-4.26-.74-5.72-2.55-.61-.76-1.12-1.63-1.56-2.5-.31-.62-.66-.96-1.38-1.09-1.37-.25-2.31-1.53-2.33-2.98-.02-1.46.9-2.7,2.26-3.04,1.3-.32,2.64.09,3.35,1.1.82,1.15.87,2.36.17,3.59-.06.1-.12.2-.21.36.51,1.24,1.12,2.43,2.12,3.41,1.12,1.11,2.47,1.31,3.95,1.03.23-.04.46-.08.67-.17,2.31-.94,4.58-1.97,6.7-3.29.29-.18.55-.43.8-.67,1.12-1.07,1.56-2.38,1.22-3.88-.18-.82-.45-1.63-.81-2.38-1.3-2.75-2.65-5.48-4-8.21-.23-.47-.5-.92-.8-1.35-1.44-2.02-3.29-2.62-5.64-1.84-.44.15-.87.32-1.29.53-6.23,3.1-12.45,6.22-18.67,9.33-.26.13-.5.28-.8.44.13.3.24.56.36.82,4.05,8.29,8.1,16.57,12.15,24.85.95,1.95,1.9,3.91,2.85,5.86.26.52.53,1.03.82,1.53,1.3,2.23,3.33,3.01,5.78,2.21.52-.17,1.02-.41,1.54-.6,1.87-.73,3.76-.98,5.66-.12,1.48.67,2.56,1.82,3.33,3.21.9,1.62,1.69,3.3,2.52,4.96.63,1.27,1.25,2.55,1.88,3.82.13.26.28.5.44.8,1.99-.93,3.92-1.83,5.93-2.77-.65-1.33-1.28-2.6-1.9-3.87-.74-1.51-1.54-2.99-2.22-4.53-.47-1.05-.88-2.15-1.11-3.28-.72-3.42,1.34-5.99,3.88-7.23,1.98-.97,3.97-1.92,5.95-2.87.26-.12.51-.27.82-.43-.94-2.13-1.86-4.21-2.81-6.35-.28.11-.49.17-.68.27-3.49,1.7-6.98,3.4-10.48,5.1-.41.2-.66.39-.76.92-.29,1.7-2.03,2.78-3.74,2.41-1.63-.35-2.75-2.07-2.41-3.69.36-1.7,2.02-2.81,3.73-2.45.39.08.78.25,1.11.45.3.18.55.24.88.07,3.64-1.78,7.3-3.55,10.95-5.33.1-.05.18-.14.31-.24-.27-.62-.53-1.23-.8-1.83-3.68-8.39-7.36-16.78-11.04-25.17-.18-.4-.37-.78-.18-1.24.29-.72.98-1.05,1.69-.74.24.1.45.26.66.41,9.35,6.52,18.69,13.04,28.04,19.57,4.85,3.38,9.7,6.79,14.57,10.14.79.54,1.1,1.15,1.1,2.08-.02,9.14,0,18.28-.02,27.42,0,.67.16,1.22.52,1.79,4.06,6.36,8.09,12.73,12.13,19.1.9,1.42.86,1.67-.44,2.75-2.5,2.08-4.99,4.16-7.52,6.2-.56.45-.74.92-.74,1.62.02,7.8.01,15.61.01,23.42,0,.23,0,.47,0,.7-.03.8-.29,1.15-1.07,1.37-1.37.37-2.75.73-4.12,1.08-4.01,1.04-8.03,2.07-12.04,3.1-3.65.94-7.29,1.88-10.94,2.83-.33.08-.66.19-1.07.3.25.93.49,1.82.73,2.71,1.3,4.66,2.61,9.32,3.91,13.98.05.2.12.39.15.59.1.76-.38,1.38-1.15,1.44-.23.02-.46,0-.7,0h-47.18c-.2,0-.41,0-.61,0-.64-.05-1.07-.43-1.16-1.08-.05-.34-.04-.69-.04-1.04,0-11.58,0-23.15,0-34.73,0-.83-.16-1.59-.49-2.35-2.93-6.79-5.84-13.58-8.77-20.37-.71-1.66-.58-2.01,1.03-2.75,7.88-3.6,15.77-7.2,23.65-10.8.21-.09.4-.21.73-.37h0ZM161.02,110.25c-.12-.22-.23-.42-.35-.61-3.87-6.1-7.72-12.21-11.62-18.28-.58-.9-.81-1.79-.81-2.84.03-8.88,0-17.75.03-26.63,0-.64-.16-1.05-.71-1.43-12.57-8.75-25.12-17.51-37.68-26.28-.2-.14-.42-.26-.79-.49.19.5.3.81.44,1.12,3.8,8.65,7.59,17.31,11.4,25.95,2.33,5.28,4.67,10.55,7.03,15.81.9,2.01,1.85,4,2.79,5.99.27.56.39,1.12-.05,1.62-.22.25-.55.42-.86.57-10.72,5-21.42,10.01-32.16,14.97-8,3.7-16.03,7.32-24.04,10.98-.28.13-.55.28-.85.43.14.35.24.62.36.88,2.82,6.58,5.64,13.16,8.48,19.73.28.66.41,1.31.41,2.02,0,11.23,0,22.45,0,33.68v1.18c1.02.21,44.59.17,45.26-.05-.17-.63-.34-1.27-.52-1.91-1.33-4.77-2.66-9.55-3.98-14.32-.34-1.22-.06-1.69,1.18-2.02,3-.79,6-1.56,9-2.34,4.99-1.29,9.98-2.57,14.98-3.86,1.39-.36,2.78-.74,4.24-1.12v-1.09c0-7.69,0-15.38,0-23.06,0-.88.26-1.52.97-2.09,2.49-1.99,4.93-4.05,7.39-6.09.15-.13.29-.27.47-.43h0ZM48.84,73.51c.28-.11.4-.14.5-.19,4.38-2.12,8.77-4.21,13.13-6.37.77-.38,1.46-.94,2.09-1.53,1.02-.95,1.41-2.19,1.13-3.57-.15-.76-.36-1.53-.68-2.23-1.33-2.86-2.72-5.7-4.09-8.54-.1-.2-.23-.38-.4-.67-5.99,6.65-10.21,14.08-11.66,23.1h0ZM121.67,68.93c-2.42,1.19-4.8,2.25-7.07,3.51-1.57.87-2.31,2.35-2,4.19.13.76.35,1.53.68,2.22,1.32,2.77,2.7,5.52,4.06,8.27.08.17.22.31.35.49,3.45-1.62,6.86-3.21,10.31-4.82-2.11-4.63-4.19-9.18-6.34-13.86h0Z"/>
  </g>
</svg>